<mxfile host="app.diagrams.net" modified="2022-02-14T07:00:24.479Z" agent="5.0 (Windows NT 10.0; Win64; x64) AppleWebKit/537.36 (KHTML, like Gecko) Chrome/98.0.4758.82 Safari/537.36" etag="F6-gDJAEEeNf7d_vF21o" version="16.5.6" type="github">
  <diagram id="C5RBs43oDa-KdzZeNtuy" name="Page-1">
    <mxGraphModel dx="1038" dy="547" grid="1" gridSize="10" guides="1" tooltips="1" connect="1" arrows="1" fold="1" page="1" pageScale="1" pageWidth="827" pageHeight="1169" math="0" shadow="0">
      <root>
        <mxCell id="WIyWlLk6GJQsqaUBKTNV-0" />
        <mxCell id="WIyWlLk6GJQsqaUBKTNV-1" parent="WIyWlLk6GJQsqaUBKTNV-0" />
        <mxCell id="c_ez_4eoq8ISVf6bQoTT-2" value="" style="edgeStyle=orthogonalEdgeStyle;rounded=0;orthogonalLoop=1;jettySize=auto;html=1;" edge="1" parent="WIyWlLk6GJQsqaUBKTNV-1" source="c_ez_4eoq8ISVf6bQoTT-0" target="c_ez_4eoq8ISVf6bQoTT-1">
          <mxGeometry relative="1" as="geometry" />
        </mxCell>
        <mxCell id="c_ez_4eoq8ISVf6bQoTT-0" value="开始" style="strokeWidth=2;html=1;shape=mxgraph.flowchart.start_1;whiteSpace=wrap;" vertex="1" parent="WIyWlLk6GJQsqaUBKTNV-1">
          <mxGeometry x="130" y="60" width="100" height="40" as="geometry" />
        </mxCell>
        <mxCell id="c_ez_4eoq8ISVf6bQoTT-4" value="" style="edgeStyle=orthogonalEdgeStyle;rounded=0;orthogonalLoop=1;jettySize=auto;html=1;" edge="1" parent="WIyWlLk6GJQsqaUBKTNV-1" source="c_ez_4eoq8ISVf6bQoTT-1" target="c_ez_4eoq8ISVf6bQoTT-3">
          <mxGeometry relative="1" as="geometry" />
        </mxCell>
        <mxCell id="c_ez_4eoq8ISVf6bQoTT-1" value="用户举报" style="whiteSpace=wrap;html=1;strokeWidth=2;" vertex="1" parent="WIyWlLk6GJQsqaUBKTNV-1">
          <mxGeometry x="130" y="130" width="100" height="40" as="geometry" />
        </mxCell>
        <mxCell id="c_ez_4eoq8ISVf6bQoTT-6" value="" style="edgeStyle=orthogonalEdgeStyle;rounded=0;orthogonalLoop=1;jettySize=auto;html=1;" edge="1" parent="WIyWlLk6GJQsqaUBKTNV-1" source="c_ez_4eoq8ISVf6bQoTT-3" target="c_ez_4eoq8ISVf6bQoTT-5">
          <mxGeometry relative="1" as="geometry" />
        </mxCell>
        <mxCell id="c_ez_4eoq8ISVf6bQoTT-3" value="管理员收到举报&lt;br&gt;进行核实" style="whiteSpace=wrap;html=1;strokeWidth=2;" vertex="1" parent="WIyWlLk6GJQsqaUBKTNV-1">
          <mxGeometry x="130" y="200" width="100" height="40" as="geometry" />
        </mxCell>
        <mxCell id="c_ez_4eoq8ISVf6bQoTT-8" value="是" style="edgeStyle=orthogonalEdgeStyle;rounded=0;orthogonalLoop=1;jettySize=auto;html=1;" edge="1" parent="WIyWlLk6GJQsqaUBKTNV-1" source="c_ez_4eoq8ISVf6bQoTT-5" target="c_ez_4eoq8ISVf6bQoTT-7">
          <mxGeometry relative="1" as="geometry" />
        </mxCell>
        <mxCell id="c_ez_4eoq8ISVf6bQoTT-11" value="否" style="edgeStyle=orthogonalEdgeStyle;rounded=0;orthogonalLoop=1;jettySize=auto;html=1;entryX=1;entryY=0.5;entryDx=0;entryDy=0;" edge="1" parent="WIyWlLk6GJQsqaUBKTNV-1" source="c_ez_4eoq8ISVf6bQoTT-5" target="c_ez_4eoq8ISVf6bQoTT-9">
          <mxGeometry relative="1" as="geometry">
            <Array as="points">
              <mxPoint x="250" y="300" />
              <mxPoint x="250" y="470" />
            </Array>
          </mxGeometry>
        </mxCell>
        <mxCell id="c_ez_4eoq8ISVf6bQoTT-5" value="属实" style="rhombus;whiteSpace=wrap;html=1;strokeWidth=2;" vertex="1" parent="WIyWlLk6GJQsqaUBKTNV-1">
          <mxGeometry x="140" y="270" width="80" height="60" as="geometry" />
        </mxCell>
        <mxCell id="c_ez_4eoq8ISVf6bQoTT-10" value="" style="edgeStyle=orthogonalEdgeStyle;rounded=0;orthogonalLoop=1;jettySize=auto;html=1;" edge="1" parent="WIyWlLk6GJQsqaUBKTNV-1" source="c_ez_4eoq8ISVf6bQoTT-7" target="c_ez_4eoq8ISVf6bQoTT-9">
          <mxGeometry relative="1" as="geometry" />
        </mxCell>
        <mxCell id="c_ez_4eoq8ISVf6bQoTT-7" value="采取相应措施" style="whiteSpace=wrap;html=1;strokeWidth=2;" vertex="1" parent="WIyWlLk6GJQsqaUBKTNV-1">
          <mxGeometry x="130" y="380" width="100" height="40" as="geometry" />
        </mxCell>
        <mxCell id="c_ez_4eoq8ISVf6bQoTT-13" value="" style="edgeStyle=orthogonalEdgeStyle;rounded=0;orthogonalLoop=1;jettySize=auto;html=1;" edge="1" parent="WIyWlLk6GJQsqaUBKTNV-1" source="c_ez_4eoq8ISVf6bQoTT-9" target="c_ez_4eoq8ISVf6bQoTT-12">
          <mxGeometry relative="1" as="geometry" />
        </mxCell>
        <mxCell id="c_ez_4eoq8ISVf6bQoTT-9" value="更新举报进度" style="whiteSpace=wrap;html=1;strokeWidth=2;" vertex="1" parent="WIyWlLk6GJQsqaUBKTNV-1">
          <mxGeometry x="130" y="450" width="100" height="40" as="geometry" />
        </mxCell>
        <mxCell id="c_ez_4eoq8ISVf6bQoTT-12" value="结束" style="ellipse;whiteSpace=wrap;html=1;strokeWidth=2;" vertex="1" parent="WIyWlLk6GJQsqaUBKTNV-1">
          <mxGeometry x="120" y="524.5" width="120" height="50" as="geometry" />
        </mxCell>
      </root>
    </mxGraphModel>
  </diagram>
</mxfile>
